<?xml version="1.0" encoding="UTF-8"?>
<!--Generator: Apple Native CoreSVG 232.5-->
<!DOCTYPE svg
PUBLIC "-//W3C//DTD SVG 1.1//EN"
       "http://www.w3.org/Graphics/SVG/1.1/DTD/svg11.dtd">
<svg version="1.1" xmlns="http://www.w3.org/2000/svg" xmlns:xlink="http://www.w3.org/1999/xlink" width="15.8027" height="15.2754">
 <g>
  <rect height="15.2754" opacity="0" width="15.8027" x="0" y="0"/>
  <path d="M7.62891 15.2637C11.8066 15.2637 15.2637 11.8066 15.2637 7.63477C15.2637 3.45703 11.8008 0 7.62305 0C3.45117 0 0 3.45703 0 7.63477C0 11.8066 3.45703 15.2637 7.62891 15.2637ZM7.62891 14.1738C4.00781 14.1738 1.0957 11.2559 1.0957 7.63477C1.0957 4.00781 4.00195 1.0957 7.62305 1.0957C11.25 1.0957 14.168 4.00781 14.168 7.63477C14.168 11.2559 11.2559 14.1738 7.62891 14.1738Z" fill="#ffffff" fill-opacity="0.85"/>
  <path d="M4.5293 8.18555L10.7227 8.18555C11.0801 8.18555 11.332 7.98633 11.332 7.65234C11.332 7.30664 11.0977 7.10156 10.7227 7.10156L4.5293 7.10156C4.16016 7.10156 3.91992 7.30664 3.91992 7.65234C3.91992 7.98633 4.17188 8.18555 4.5293 8.18555Z" fill="#ffffff" fill-opacity="0.85"/>
 </g>
</svg>
