<?xml version="1.0" encoding="UTF-8"?>
<!--Generator: Apple Native CoreSVG 232.5-->
<!DOCTYPE svg
PUBLIC "-//W3C//DTD SVG 1.1//EN"
       "http://www.w3.org/Graphics/SVG/1.1/DTD/svg11.dtd">
<svg version="1.1" xmlns="http://www.w3.org/2000/svg" xmlns:xlink="http://www.w3.org/1999/xlink" width="15.8027" height="15.2754">
 <g>
  <rect height="15.2754" opacity="0" width="15.8027" x="0" y="0"/>
  <path d="M7.62891 15.2637C11.8066 15.2637 15.2637 11.8066 15.2637 7.63477C15.2637 3.45703 11.8125 0 7.63477 0C7.25391 0 7.08398 0.216797 7.08398 0.568359L7.08398 3.52148C7.08398 3.80859 7.27148 4.03125 7.56445 4.03125C7.85156 4.03125 8.03906 3.80859 8.03906 3.52148L8.03906 0.503906L7.61133 1.0957C11.2617 1.0957 14.1621 4.00781 14.1621 7.63477C14.1621 11.2559 11.2559 14.1738 7.62891 14.1738C4.00781 14.1738 1.08398 11.2559 1.08984 7.63477C1.0957 5.97656 1.71094 4.4707 2.71875 3.32227C2.91797 3.07617 2.93555 2.77148 2.71875 2.54883C2.50781 2.32031 2.15625 2.33789 1.92188 2.61914C0.732422 3.9668 0 5.72461 0 7.63477C0 11.8066 3.45703 15.2637 7.62891 15.2637Z" fill="#ffffff" fill-opacity="0.85"/>
  <path d="M8.77148 8.63672C9.33398 8.04492 9.2168 7.25391 8.53711 6.7793L4.58789 3.98438C4.24219 3.74414 3.89062 4.10156 4.13672 4.44727L6.91992 8.39648C7.39453 9.07031 8.18555 9.19922 8.77148 8.63672Z" fill="#ffffff" fill-opacity="0.85"/>
 </g>
</svg>
