<?xml version="1.0" encoding="UTF-8"?>
<!--Generator: Apple Native CoreSVG 232.5-->
<!DOCTYPE svg
PUBLIC "-//W3C//DTD SVG 1.1//EN"
       "http://www.w3.org/Graphics/SVG/1.1/DTD/svg11.dtd">
<svg version="1.1" xmlns="http://www.w3.org/2000/svg" xmlns:xlink="http://www.w3.org/1999/xlink" width="14.4141" height="17.4434">
 <g>
  <rect height="17.4434" opacity="0" width="14.4141" x="0" y="0"/>
  <path d="M12.1875 4.91602C10.6523 4.35938 8.44336 6.15234 7.78125 7.95703C7.4707 8.83008 7.13672 10.6582 7.33594 12.2695L11.1738 13.6641C12.3574 12.5566 13.2832 10.957 13.6055 10.0781C14.2559 8.26758 13.7227 5.47266 12.1875 4.91602ZM7.76953 17.0625C8.86523 17.4609 9.85547 16.582 10.418 15.041C10.4766 14.8828 10.5469 14.6309 10.5879 14.4434L7.29492 13.2422C7.20117 13.4121 7.10156 13.6465 7.04297 13.8105C6.48047 15.3516 6.67383 16.6582 7.76953 17.0625Z" fill="#ffffff" fill-opacity="0.85"/>
  <path d="M3.09375 0C1.46484 0 0 2.44336 0 4.36523C0 5.29688 0.316406 7.125 1.04883 8.56641L5.13867 8.56641C5.87109 7.125 6.1875 5.29688 6.1875 4.36523C6.1875 2.44336 4.72852 0 3.09375 0ZM3.09961 12.9199C4.26562 12.9199 4.89258 11.7598 4.89258 10.1191C4.89258 9.94922 4.88086 9.69141 4.85156 9.50391L1.34766 9.50391C1.3125 9.69141 1.30078 9.94922 1.30078 10.1191C1.30078 11.7598 1.92773 12.9199 3.09961 12.9199Z" fill="#ffffff" fill-opacity="0.85"/>
 </g>
</svg>
