<?xml version="1.0" encoding="UTF-8"?>
<!--Generator: Apple Native CoreSVG 232.5-->
<!DOCTYPE svg
PUBLIC "-//W3C//DTD SVG 1.1//EN"
       "http://www.w3.org/Graphics/SVG/1.1/DTD/svg11.dtd">
<svg version="1.1" xmlns="http://www.w3.org/2000/svg" xmlns:xlink="http://www.w3.org/1999/xlink" width="16.5527" height="16.002">
 <g>
  <rect height="16.002" opacity="0" width="16.5527" x="0" y="0"/>
  <path d="M7.24219 16.002L8.77148 16.002C9.32227 16.002 9.73242 15.6738 9.86133 15.1348L10.1953 13.6934L10.5117 13.582L11.7656 14.3555C12.2344 14.6543 12.7617 14.5898 13.1543 14.1973L14.209 13.1367C14.6074 12.7441 14.6777 12.2168 14.3789 11.7539L13.5938 10.5L13.7051 10.1953L15.1465 9.86133C15.6797 9.73242 16.0137 9.31641 16.0137 8.76562L16.0137 7.26562C16.0137 6.7207 15.6855 6.30469 15.1465 6.17578L13.7168 5.83008L13.5996 5.51367L14.3848 4.26562C14.6836 3.79688 14.6133 3.28125 14.2148 2.87695L13.1602 1.81641C12.7734 1.42969 12.2461 1.35938 11.7773 1.65234L10.5234 2.42578L10.1953 2.30273L9.86133 0.867188C9.73242 0.322266 9.32227 0 8.77148 0L7.24219 0C6.69141 0 6.28125 0.322266 6.15234 0.867188L5.81836 2.30273L5.48438 2.42578L4.23633 1.65234C3.76758 1.35938 3.24023 1.42969 2.85352 1.81641L1.79297 2.87695C1.40039 3.28125 1.33008 3.79688 1.62891 4.26562L2.41406 5.51367L2.29102 5.83008L0.867188 6.17578C0.328125 6.30469 0 6.7207 0 7.26562L0 8.76562C0 9.31641 0.333984 9.73242 0.867188 9.86133L2.30273 10.1953L2.41992 10.5L1.63477 11.7539C1.33594 12.2168 1.40625 12.7441 1.79883 13.1367L2.85938 14.1973C3.25195 14.5898 3.7793 14.6543 4.24805 14.3555L5.49609 13.582L5.81836 13.6934L6.15234 15.1348C6.28125 15.6738 6.69141 16.002 7.24219 16.002ZM7.34766 14.9941C7.18945 14.9941 7.10156 14.918 7.07227 14.7715L6.63281 12.9199C6.19922 12.8027 5.78906 12.6387 5.47266 12.4512L3.85547 13.459C3.73242 13.541 3.60938 13.5234 3.49219 13.4062L2.58398 12.498C2.4668 12.3867 2.46094 12.2754 2.54297 12.1406L3.54492 10.5234C3.38672 10.2188 3.20508 9.80859 3.08789 9.375L1.23047 8.94141C1.08398 8.91211 1.00781 8.82422 1.00781 8.66016L1.00781 7.36523C1.00781 7.20117 1.07812 7.11914 1.23047 7.08398L3.08203 6.64453C3.19922 6.19336 3.4043 5.77148 3.5332 5.49023L2.53711 3.87891C2.44922 3.73828 2.45508 3.62109 2.57227 3.50977L3.48633 2.60742C3.60352 2.49609 3.71484 2.47852 3.85547 2.56055L5.46094 3.55078C5.77734 3.38086 6.21094 3.19922 6.63867 3.08203L7.07227 1.23047C7.10156 1.07812 7.18945 1.00781 7.34766 1.00781L8.66602 1.00781C8.83008 1.00781 8.91211 1.07227 8.94141 1.23047L9.38086 3.09375C9.82617 3.20508 10.2188 3.38672 10.541 3.55664L12.1523 2.56055C12.2988 2.47852 12.4043 2.49609 12.5273 2.60742L13.4414 3.50977C13.5527 3.62109 13.5586 3.73828 13.4707 3.87891L12.4746 5.49023C12.6152 5.77148 12.8145 6.1875 12.9316 6.64453L14.7832 7.08398C14.9355 7.11914 15.0059 7.20117 15.0059 7.36523L15.0059 8.66016C15.0059 8.82422 14.9297 8.91211 14.7832 8.94141L12.9258 9.375C12.8086 9.80859 12.6328 10.2188 12.4629 10.5234L13.4648 12.1406C13.5469 12.2754 13.541 12.3867 13.4297 12.498L12.5215 13.4062C12.3984 13.5234 12.2812 13.541 12.1523 13.459L10.5352 12.4512C10.2246 12.6387 9.82031 12.8027 9.38086 12.9199L8.94141 14.7715C8.91211 14.9238 8.83008 14.9941 8.66602 14.9941ZM8.00977 10.8867C9.5918 10.8867 10.8926 9.58594 10.8926 7.99805C10.8926 6.42188 9.5918 5.12109 8.00977 5.12109C6.42773 5.12109 5.11523 6.42188 5.11523 7.99805C5.11523 9.58008 6.42188 10.8867 8.00977 10.8867ZM8.00977 9.88477C6.97852 9.88477 6.12891 9.03516 6.12891 7.99805C6.12891 6.97852 6.98438 6.12305 8.00977 6.12305C9.0293 6.12305 9.87891 6.97852 9.87891 7.99805C9.87891 9.0293 9.0293 9.88477 8.00977 9.88477Z" fill="#ffffff" fill-opacity="0.85"/>
 </g>
</svg>
