<?xml version="1.0" encoding="UTF-8"?>
<!--Generator: Apple Native CoreSVG 232.5-->
<!DOCTYPE svg
PUBLIC "-//W3C//DTD SVG 1.1//EN"
       "http://www.w3.org/Graphics/SVG/1.1/DTD/svg11.dtd">
<svg version="1.1" xmlns="http://www.w3.org/2000/svg" xmlns:xlink="http://www.w3.org/1999/xlink" width="12.9778" height="16.3887">
 <g>
  <rect height="16.3887" opacity="0" width="12.9778" x="0" y="0"/>
  <path d="M7.76332 3.22852C8.6598 3.22852 9.37465 2.50781 9.37465 1.61719C9.37465 0.720703 8.6598 0 7.76332 0C6.86683 0 6.14613 0.720703 6.14613 1.61719C6.14613 2.50781 6.86683 3.22852 7.76332 3.22852ZM5.23207 9.70312L8.08558 11.3086L6.23988 12.8965C5.85316 13.2246 5.85316 13.6582 6.0934 13.9277C6.34535 14.209 6.77894 14.2559 7.17738 13.916L9.74379 11.7305C10.0895 11.4316 10.0309 10.7988 9.61488 10.5293L6.81996 8.69531L7.3766 6.76172C7.45277 6.47461 7.77504 6.43945 7.94496 6.68555L8.76527 7.88086C8.95863 8.15625 9.30433 8.26172 9.62074 8.12109L11.9762 7.06641C12.3922 6.88477 12.5446 6.52734 12.3629 6.15234C12.1871 5.7832 11.8297 5.67188 11.4196 5.85352L9.54457 6.68555L8.24965 4.89844C7.58168 3.97266 6.74965 3.60352 5.39027 3.70312L2.77113 3.89062C2.36683 3.91992 2.07972 4.18945 2.02699 4.61133L1.67543 7.26562C1.61097 7.72266 1.83363 8.03906 2.24379 8.08008C2.64808 8.12109 2.91176 7.88086 2.97621 7.42969L3.29847 5.25L4.35316 5.17969C4.59926 5.15625 4.82191 5.33203 4.73988 5.61328L4.13637 7.75195C3.77308 9 4.58754 9.33984 5.23207 9.70312ZM0.2516 16.1309C0.53285 16.3711 0.948865 16.3887 1.31801 16.0312L3.72621 13.6465C3.93129 13.4414 3.9723 13.3945 4.09535 13.084L5.12074 10.4414L4.88637 10.3125C4.31801 9.99609 3.91957 9.69141 3.66176 9.35156L2.77113 12.5273L0.263318 15.0176C-0.117541 15.3926-0.0530879 15.8613 0.2516 16.1309Z" fill="#ffffff" fill-opacity="0.85"/>
 </g>
</svg>
