<?xml version="1.0" encoding="UTF-8"?>
<!--Generator: Apple Native CoreSVG 232.5-->
<!DOCTYPE svg
PUBLIC "-//W3C//DTD SVG 1.1//EN"
       "http://www.w3.org/Graphics/SVG/1.1/DTD/svg11.dtd">
<svg version="1.1" xmlns="http://www.w3.org/2000/svg" xmlns:xlink="http://www.w3.org/1999/xlink" width="16.8691" height="16.4004">
 <g>
  <rect height="16.4004" opacity="0" width="16.8691" x="0" y="0"/>
  <path d="M3.99609 4.80469C4.21289 5.02148 4.57617 5.02148 4.79297 4.80469C5.00977 4.58789 5.00977 4.22461 4.79297 4.00781L3.15234 2.35547C2.93555 2.13867 2.57227 2.13281 2.35547 2.34961C2.13867 2.56641 2.13867 2.92969 2.35547 3.14648Z" fill="#ffffff" fill-opacity="0.85"/>
  <path d="M0.568359 7.59961C0.257812 7.59961 0 7.86328 0 8.16797C0 8.47266 0.257812 8.73047 0.568359 8.73047L2.90625 8.73047C3.2168 8.73047 3.47461 8.47266 3.47461 8.16797C3.47461 7.86328 3.2168 7.59961 2.90625 7.59961Z" fill="#ffffff" fill-opacity="0.85"/>
  <path d="M2.40234 13.1191C2.18555 13.3359 2.18555 13.6992 2.39648 13.916C2.61328 14.1328 2.98242 14.1387 3.19922 13.9219L4.85156 12.2754C5.06836 12.0586 5.06836 11.6953 4.85156 11.4785C4.64062 11.2617 4.27148 11.2617 4.05469 11.4785Z" fill="#ffffff" fill-opacity="0.85"/>
  <path d="M8.73047 13.4297C8.73047 13.125 8.4668 12.8613 8.16211 12.8613C7.85742 12.8613 7.59961 13.125 7.59961 13.4297L7.59961 15.7617C7.59961 16.0723 7.85742 16.3301 8.16211 16.3301C8.4668 16.3301 8.73047 16.0723 8.73047 15.7617Z" fill="#ffffff" fill-opacity="0.85"/>
  <path d="M12.2695 11.4668C12.0527 11.25 11.6836 11.25 11.4668 11.4668C11.25 11.6895 11.25 12.0469 11.4668 12.2637L13.125 13.9219C13.3418 14.1387 13.7051 14.1328 13.9219 13.9219C14.1387 13.7051 14.1387 13.3359 13.9219 13.1191Z" fill="#ffffff" fill-opacity="0.85"/>
  <path d="M15.7617 8.73047C16.0664 8.73047 16.3301 8.47266 16.3301 8.16797C16.3301 7.86328 16.0664 7.59961 15.7617 7.59961L13.4238 7.59961C13.1191 7.59961 12.8613 7.86328 12.8613 8.16797C12.8613 8.47266 13.1191 8.73047 13.4238 8.73047Z" fill="#ffffff" fill-opacity="0.85"/>
  <path d="M11.4668 4.06641C11.25 4.2832 11.25 4.64648 11.4668 4.86328C11.6836 5.08008 12.0527 5.08008 12.2695 4.86328L13.9219 3.21094C14.1387 2.99414 14.1387 2.625 13.9219 2.4082C13.7051 2.19141 13.3418 2.19141 13.125 2.4082Z" fill="#ffffff" fill-opacity="0.85"/>
  <path d="M8.73047 0.568359C8.73047 0.263672 8.4668 0 8.16211 0C7.85742 0 7.59961 0.263672 7.59961 0.568359L7.59961 2.90625C7.59961 3.21094 7.85742 3.46875 8.16211 3.46875C8.4668 3.46875 8.73047 3.21094 8.73047 2.90625Z" fill="#ffffff" fill-opacity="0.85"/>
 </g>
</svg>
