<?xml version="1.0" encoding="UTF-8"?>
<!--Generator: Apple Native CoreSVG 232.5-->
<!DOCTYPE svg
PUBLIC "-//W3C//DTD SVG 1.1//EN"
       "http://www.w3.org/Graphics/SVG/1.1/DTD/svg11.dtd">
<svg version="1.1" xmlns="http://www.w3.org/2000/svg" xmlns:xlink="http://www.w3.org/1999/xlink" width="17.4258" height="13.3418">
 <g>
  <rect height="13.3418" opacity="0" width="17.4258" x="0" y="0"/>
  <path d="M16.1836 10.3535C16.6465 10.3535 16.8867 10.1133 16.8867 9.65039L16.8867 3.69141C16.8867 3.22852 16.6465 2.98828 16.1836 2.98828C15.7207 2.98828 15.4805 3.22852 15.4805 3.69141L15.4805 9.65039C15.4805 10.1133 15.7207 10.3535 16.1836 10.3535Z" fill="#ffffff" fill-opacity="0.85"/>
  <path d="M12.3105 8.46094C12.7676 8.46094 13.0137 8.2207 13.0137 7.75781L13.0137 5.58398C13.0137 5.12109 12.7676 4.88086 12.3105 4.88086C11.8535 4.88086 11.6133 5.12109 11.6133 5.58398L11.6133 7.75781C11.6133 8.2207 11.8535 8.46094 12.3105 8.46094Z" fill="#ffffff" fill-opacity="0.85"/>
  <path d="M8.44336 13.3418C8.90625 13.3418 9.14648 13.0957 9.14648 12.6328L9.14648 0.708984C9.14648 0.246094 8.90625 0 8.44336 0C7.98047 0 7.74023 0.246094 7.74023 0.708984L7.74023 12.6328C7.74023 13.0957 7.98047 13.3418 8.44336 13.3418Z" fill="#ffffff" fill-opacity="0.85"/>
  <path d="M4.58203 8.46094C5.0332 8.46094 5.27344 8.2207 5.27344 7.75781L5.27344 5.58398C5.27344 5.12109 5.0332 4.88086 4.58203 4.88086C4.11914 4.88086 3.87305 5.12109 3.87305 5.58398L3.87305 7.75781C3.87305 8.2207 4.11914 8.46094 4.58203 8.46094Z" fill="#ffffff" fill-opacity="0.85"/>
  <path d="M0.703125 10.3535C1.16602 10.3535 1.41211 10.1133 1.41211 9.65039L1.41211 3.69141C1.41211 3.22852 1.16602 2.98828 0.703125 2.98828C0.246094 2.98828 0 3.22852 0 3.69141L0 9.65039C0 10.1133 0.246094 10.3535 0.703125 10.3535Z" fill="#ffffff" fill-opacity="0.85"/>
 </g>
</svg>
